<svg width="36" height="34" viewBox="0 0 36 34" fill="none" xmlns="http://www.w3.org/2000/svg">
<path d="M15.5256 5.70769C15.7497 5.11569 16.6377 5.11569 16.8618 5.70769C17.8085 8.2051 19.6306 12.5517 21.4526 14.3732C23.2792 16.1972 27.4062 18.0243 29.7559 18.971C30.3302 19.2001 30.3302 20.0629 29.7559 20.2926C27.4062 21.2393 23.2792 23.0659 21.4526 24.8905C19.6306 26.7126 17.8085 31.0592 16.8618 33.556C16.6377 34.148 15.7497 34.148 15.5256 33.556C14.5764 31.0586 12.7549 26.7119 10.9354 24.8905C9.11328 23.0684 4.76664 21.2488 2.26986 20.3002C1.67785 20.0755 1.67785 19.1882 2.26986 18.9641C4.76727 18.0149 9.11391 16.1953 10.9354 14.3732C12.7543 12.5511 14.577 8.2051 15.5256 5.70769ZM28.6445 0.436435C28.8862 -0.145473 29.7982 -0.145473 30.0424 0.436435C30.5454 1.64948 31.258 3.13833 31.9724 3.85341C32.69 4.57102 34.1227 5.29051 35.2714 5.79353C35.8382 6.04283 35.8382 6.92326 35.2714 7.17193C34.1227 7.67495 32.69 8.39444 31.9724 9.11205C31.258 9.82713 30.5454 11.316 30.0424 12.529C29.7982 13.1135 28.8862 13.1135 28.6445 12.529C28.1414 11.316 27.4264 9.82713 26.7138 9.11205C25.9994 8.39949 24.5099 7.68442 23.2968 7.1814C22.713 6.9403 22.713 6.02768 23.2968 5.78658C24.5099 5.28104 25.9994 4.56849 26.7138 3.85341C27.427 3.13833 28.1414 1.64948 28.6445 0.436435ZM3.19385 3.9323C3.45766 3.35797 4.3867 3.35797 4.65114 3.9323C4.95156 4.58301 5.31384 5.24381 5.67359 5.60608C6.04154 5.9734 6.68719 6.34072 7.31328 6.6443C7.87057 6.91317 7.87057 7.80812 7.31328 8.07698C6.68719 8.37993 6.04154 8.74725 5.67422 9.11205C5.31447 9.47432 4.95156 10.1351 4.65114 10.7883C4.38733 11.3602 3.45766 11.3602 3.19385 10.7883C2.89279 10.1351 2.53115 9.47432 2.16825 9.11205C1.80598 8.7523 1.14517 8.3894 0.494472 8.08897C-0.079863 7.82516 -0.079863 6.89612 0.494472 6.63168C1.14454 6.33126 1.80598 5.96898 2.16825 5.60608C2.53052 5.24381 2.89279 4.58364 3.19385 3.9323Z" fill="#2EACE1"/>
</svg>
