<svg width="94" height="95" viewBox="0 0 94 95" fill="none" xmlns="http://www.w3.org/2000/svg">
<path d="M66.9755 22.3546C70.6648 25.3831 73.7108 29.1415 75.9114 33.3804C78.112 37.6194 79.4169 42.242 79.7395 46.9416C80.062 51.6412 79.395 56.3103 77.7825 60.6392C76.17 64.968 73.6489 68.8577 70.3866 72.05C67.1242 75.2423 63.1952 77.6643 58.8602 79.1554C54.5251 80.6464 49.8832 81.1724 45.2423 80.6984C40.6014 80.2245 36.0677 78.7614 31.942 76.4062C27.8163 74.051 24.1929 70.8576 21.3122 67.0379L47.0375 47.7125L66.9755 22.3546Z" fill="url(#paint0_linear_2001_2060)"/>
<g clip-path="url(#clip0_2001_2060)">
<rect width="57.4861" height="57.4861" transform="matrix(0.996341 0.0854629 -0.373031 0.927819 27.6935 16.4097)" fill="url(#paint1_radial_2001_2060)"/>
<path d="M50.0015 34.6102C53.7969 34.9357 54.3145 34.9801 55.8671 35.1133C57.2473 35.2317 57.8081 35.6122 58.2611 35.8173C58.822 36.1977 59.275 36.4028 59.5987 36.9291C59.9225 37.4555 60.0738 37.9671 59.9879 38.6245C59.9667 39.1212 59.8808 39.7786 59.5366 41.0786C58.9553 42.5245 58.8261 42.8458 57.3405 46.5408C55.855 50.2359 55.7258 50.5572 55.1445 52.003C54.6277 53.2883 54.0243 53.9013 53.6581 54.3684C53.0547 54.9814 52.6884 55.4486 51.977 55.8862C51.2657 56.3237 50.619 56.6006 49.8643 56.7021C49.2822 56.8184 48.5275 56.9198 47.0828 56.9621C45.5301 56.8289 45.1851 56.7993 41.2172 56.459C37.2493 56.1186 36.9043 56.089 35.3516 55.9558C33.9715 55.8375 33.4106 55.457 32.9576 55.2519C32.3967 54.8714 31.9438 54.6664 31.62 54.14C31.2962 53.6137 31.1449 53.1021 31.2308 52.4447C31.252 51.9479 31.3379 51.2905 31.6821 49.9905C32.2634 48.5446 32.3926 48.2233 33.8782 44.5283C35.3638 40.8333 35.4929 40.512 36.0743 39.0661C36.591 37.7809 37.1944 37.1679 37.5607 36.7007C38.1641 36.0877 38.5303 35.6206 39.2417 35.183C39.953 34.7454 40.5997 34.4685 41.3544 34.367C41.9365 34.2508 42.6912 34.1493 44.1359 34.1071C45.6886 34.2402 46.2061 34.2846 50.0015 34.6102ZM50.9704 32.2004C47.0025 31.86 46.6574 31.8305 45.1048 31.6973C43.5521 31.5641 42.3878 31.7966 41.3961 32.0439C40.4043 32.2912 39.3479 32.6992 38.1624 33.4285C36.9769 34.1578 36.3735 34.7708 35.4684 35.6903C34.8004 36.464 34.2403 37.4131 33.4865 38.8442C32.9052 40.29 32.7114 40.772 31.2904 44.3063C29.8048 48.0014 29.6756 48.3227 29.0943 49.7685C28.513 51.2144 28.4705 52.2079 28.4926 53.0408C28.5147 53.8736 28.7093 54.7213 29.2489 55.5986C29.7885 56.4758 30.3494 56.8563 31.1908 57.4271C31.9242 57.8224 32.8947 58.0718 34.3827 58.3656C35.9354 58.4988 36.453 58.5432 40.2483 58.8688C44.0437 59.1943 44.5613 59.2387 46.1139 59.3719C47.6666 59.5051 48.8309 59.2726 49.8226 59.0252C50.8144 58.7779 51.8708 58.37 53.0563 57.6407C54.2419 56.9114 54.8453 56.2984 55.7503 55.3789C56.4183 54.6052 56.9784 53.6561 57.7322 52.225C58.3135 50.7791 58.5073 50.2972 59.9283 46.7628C61.3493 43.2285 61.5431 42.7465 62.1244 41.3006C62.7057 39.8547 62.7482 38.8612 62.7261 38.0284C62.7041 37.1955 62.5095 36.3479 61.9698 35.4706C61.4302 34.5933 60.8693 34.2128 60.028 33.6421C59.2946 33.2468 58.324 32.9974 56.836 32.7035C55.2833 32.5704 54.9383 32.5408 50.9704 32.2004Z" fill="white"/>
<path d="M48.3868 38.6265C44.2463 38.2714 39.7413 41.0426 38.1911 44.8983C36.6409 48.7539 38.6915 52.0875 42.832 52.4426C46.9724 52.7978 51.4774 50.0266 53.0276 46.1709C54.5778 42.3152 52.5272 38.9817 48.3868 38.6265ZM43.8008 50.0329C41.2131 49.8109 39.7454 47.6907 40.7789 45.1202C41.7477 42.7104 44.6576 40.7995 47.4179 41.0363C50.0057 41.2583 51.4733 43.3785 50.4398 45.9489C49.471 48.3587 46.3886 50.2548 43.8008 50.0329Z" fill="white"/>
<path d="M55.3962 40.7235C56.349 40.8052 57.4106 40.1522 57.7673 39.2649C58.124 38.3777 57.6408 37.5922 56.688 37.5104C55.7352 37.4287 54.6737 38.0817 54.3169 38.969C53.9602 39.8563 54.4434 40.6418 55.3962 40.7235Z" fill="white"/>
</g>
<defs>
<linearGradient id="paint0_linear_2001_2060" x1="55.1632" y1="55.1713" x2="71.6354" y2="83.0525" gradientUnits="userSpaceOnUse">
<stop stop-color="#F3AC58"/>
<stop offset="1" stop-color="#E425A9"/>
</linearGradient>
<radialGradient id="paint1_radial_2001_2060" cx="0" cy="0" r="1" gradientUnits="userSpaceOnUse" gradientTransform="translate(58.6426 1.16769) scale(132.753)">
<stop stop-color="#F9ED32"/>
<stop offset="0.36" stop-color="#EE2A7B"/>
<stop offset="0.44" stop-color="#D22A8A"/>
<stop offset="0.6" stop-color="#8B2AB2"/>
<stop offset="0.83" stop-color="#1B2AF0"/>
<stop offset="0.88" stop-color="#002AFF"/>
</radialGradient>
<clipPath id="clip0_2001_2060">
<rect width="57.4861" height="57.4861" rx="28.7431" transform="matrix(0.996341 0.0854629 -0.373031 0.927819 27.6935 16.4097)" fill="white"/>
</clipPath>
</defs>
</svg>
