<svg width="272" height="34" viewBox="0 0 272 34" fill="none" xmlns="http://www.w3.org/2000/svg">
<g clip-path="url(#clip0_2_20)">
<path d="M18.5182 27.2339C19.3828 26.8489 19.9824 26.4702 20.3232 26.1168V16.8201H12.1311V21.0046H15.9305V23.6617C15.2741 24.0403 14.2643 24.2297 12.9137 24.2297C11.4936 24.2297 10.2377 23.9646 9.13317 23.4218C8.02237 22.8854 7.16402 22.1154 6.5455 21.1056C5.92699 20.102 5.61773 18.9218 5.61773 17.5649C5.61773 15.217 6.24887 13.4436 7.51746 12.2444C8.77973 11.0515 10.61 10.452 13.002 10.452C13.6774 10.452 14.5231 10.5845 15.5266 10.8559C16.5301 11.1273 17.3253 11.4176 17.8997 11.7395L19.3071 7.7002C18.4109 7.22685 17.3758 6.83554 16.2019 6.53891C15.0217 6.23596 13.7657 6.0908 12.434 6.0908C10.3639 6.0908 8.47047 6.5326 6.75378 7.41619C5.0434 8.30609 3.67383 9.63779 2.6577 11.4239C1.64157 13.21 1.13666 15.3811 1.13666 17.9562C1.13666 20.0074 1.61632 21.8377 2.56934 23.4408C3.52867 25.0439 4.88561 26.2998 6.6528 27.2023C8.41367 28.1112 10.4586 28.5656 12.7938 28.5656C13.6458 28.5656 14.5988 28.4394 15.6465 28.1932C16.6942 27.9408 17.6472 27.6252 18.5182 27.2339ZM29.5883 6.33063H25.2524V28.3258H39.9327V24.1413H29.5883V6.33063ZM55.2945 24.0214L56.9986 28.3258H62.0162L52.0947 5.45966H51.8548L41.9334 28.3258H46.2062L47.9986 24.0214H55.2945ZM53.8556 20.3734H49.526L51.7349 15.0277L53.8556 20.3734ZM87.8739 5.43442H87.8107L76.3935 21.2444L65.2476 5.43442H65.216V28.3258H69.4005V18.4926L76.3051 28.0291H76.3619L83.5379 17.8363V28.3258H87.8739V5.43442ZM93.7119 11.7647C92.7084 13.5004 92.2035 15.3622 92.2035 17.3566C92.2035 19.3889 92.7084 21.2633 93.7119 22.9737C94.7217 24.6904 96.0786 26.0474 97.7953 27.0572C99.5057 28.0607 101.38 28.5656 103.412 28.5656C105.426 28.5656 107.294 28.0607 109.017 27.0572C110.74 26.0474 112.116 24.6904 113.138 22.9737C114.167 21.2633 114.678 19.3889 114.678 17.3566C114.678 15.3622 114.167 13.5004 113.138 11.7647C112.116 10.0354 110.74 8.65322 109.017 7.63077C107.294 6.60202 105.426 6.0908 103.412 6.0908C101.399 6.0908 99.531 6.60202 97.808 7.63077C96.0849 8.65322 94.7217 10.0354 93.7119 11.7647ZM97.5997 20.8847C96.9938 19.8054 96.6908 18.6315 96.6908 17.3566C96.6908 16.0438 96.9875 14.8447 97.5871 13.7717C98.1803 12.6925 98.9945 11.8405 100.023 11.2156C101.046 10.5845 102.188 10.2752 103.444 10.2752C104.7 10.2752 105.836 10.5845 106.865 11.2156C107.894 11.8405 108.701 12.6925 109.301 13.7717C109.901 14.8447 110.197 16.0438 110.197 17.3566C110.197 18.6504 109.907 19.8307 109.333 20.8973C108.752 21.9639 107.957 22.8096 106.941 23.4408C105.924 24.0656 104.795 24.3812 103.564 24.3812C102.289 24.3812 101.128 24.0656 100.08 23.4408C99.0324 22.8096 98.2056 21.9576 97.5997 20.8847ZM123.527 22.1974C123.11 21.56 122.902 20.891 122.902 20.1967V6.33063H118.566V20.2851C118.566 21.8629 118.957 23.2767 119.746 24.5453C120.535 25.8075 121.602 26.7984 122.959 27.5053C124.316 28.2122 125.812 28.5656 127.44 28.5656C129.074 28.5656 130.577 28.2122 131.94 27.5053C133.303 26.7984 134.389 25.8075 135.184 24.5453C135.979 23.2767 136.377 21.8629 136.377 20.2851V6.33063H132.104V20.1967C132.104 20.891 131.902 21.56 131.492 22.1974C131.082 22.8349 130.52 23.3524 129.807 23.75C129.087 24.1539 128.298 24.3496 127.44 24.3496C126.645 24.3496 125.9 24.1539 125.199 23.75C124.505 23.3524 123.943 22.8349 123.527 22.1974ZM153.474 28.3258H158.53L153.417 20.3482C154.591 19.6666 155.462 18.7388 156.03 17.5523C156.598 16.3657 156.882 15.0971 156.882 13.7402C156.882 11.4492 156.131 9.63779 154.629 8.31871C153.121 6.99333 151.007 6.33063 148.274 6.33063H141.609V28.3258H145.945V21.3328H148.842L153.474 28.3258ZM145.945 17.1483V10.5151H149.05C150.369 10.5151 151.253 10.8748 151.713 11.6006C152.168 12.3327 152.401 13.0901 152.401 13.8917C152.401 14.6869 152.13 15.4316 151.593 16.1196C151.057 16.8012 150.199 17.1483 149.025 17.1483H145.945ZM168.868 10.067C170.281 10.067 171.948 10.5908 173.86 11.6511L175.501 8.33134C174.466 7.65602 173.399 7.13218 172.307 6.75981C171.209 6.39375 169.846 6.21072 168.211 6.21072C166.141 6.30539 164.481 6.93652 163.232 8.09151C161.988 9.24649 161.363 10.7738 161.363 12.6673C161.363 13.9611 161.673 15.034 162.279 15.8924C162.885 16.7507 163.61 17.4071 164.443 17.8678C165.283 18.3222 166.324 18.8019 167.58 19.3005C169.713 20.1336 170.78 21.1245 170.78 22.2605C170.78 23.1378 170.439 23.769 169.764 24.1539C169.089 24.5453 168.287 24.7409 167.372 24.7409C166.596 24.7409 165.718 24.5579 164.746 24.1981C163.768 23.8447 162.897 23.384 162.146 22.8286L160.227 26.2051C161.345 27.0004 162.55 27.5936 163.844 27.985C165.144 28.3699 166.444 28.5656 167.763 28.5656C169.335 28.5656 170.692 28.2816 171.828 27.7136C172.964 27.1455 173.822 26.3756 174.409 25.4099C175.002 24.4443 175.293 23.3966 175.293 22.2605C175.293 20.9415 175.053 19.8559 174.561 18.9976C174.075 18.1455 173.462 17.4702 172.724 16.9842C171.986 16.4919 171.102 16.0628 170.061 15.6841C168.786 15.2044 167.77 14.6995 167 14.1757C166.236 13.6455 165.851 13.0333 165.851 12.3327C165.851 11.5754 166.116 11.0137 166.64 10.635C167.17 10.2563 167.908 10.067 168.868 10.067Z" fill="#2B2B2B"/>
</g>
<g clip-path="url(#clip1_2_20)">
<path d="M199.526 5.70769C199.75 5.11569 200.638 5.11569 200.862 5.70769C201.808 8.2051 203.631 12.5517 205.453 14.3732C207.279 16.1972 211.406 18.0243 213.756 18.971C214.33 19.2001 214.33 20.0629 213.756 20.2926C211.406 21.2393 207.279 23.0659 205.453 24.8905C203.631 26.7126 201.808 31.0592 200.862 33.556C200.638 34.148 199.75 34.148 199.526 33.556C198.576 31.0586 196.755 26.7119 194.935 24.8905C193.113 23.0684 188.767 21.2488 186.27 20.3002C185.678 20.0755 185.678 19.1882 186.27 18.9641C188.767 18.0149 193.114 16.1953 194.935 14.3732C196.754 12.5511 198.577 8.2051 199.526 5.70769ZM212.644 0.436435C212.886 -0.145473 213.798 -0.145473 214.042 0.436435C214.545 1.64948 215.258 3.13833 215.972 3.85341C216.69 4.57102 218.123 5.29051 219.271 5.79353C219.838 6.04283 219.838 6.92326 219.271 7.17193C218.123 7.67495 216.69 8.39444 215.972 9.11205C215.258 9.82713 214.545 11.316 214.042 12.529C213.798 13.1135 212.886 13.1135 212.644 12.529C212.141 11.316 211.426 9.82713 210.714 9.11205C209.999 8.39949 208.51 7.68442 207.297 7.1814C206.713 6.9403 206.713 6.02768 207.297 5.78658C208.51 5.28104 209.999 4.56849 210.714 3.85341C211.427 3.13833 212.141 1.64948 212.644 0.436435ZM187.194 3.9323C187.458 3.35797 188.387 3.35797 188.651 3.9323C188.952 4.58301 189.314 5.24381 189.674 5.60608C190.042 5.9734 190.687 6.34072 191.313 6.6443C191.871 6.91317 191.871 7.80812 191.313 8.07698C190.687 8.37993 190.042 8.74725 189.674 9.11205C189.314 9.47432 188.952 10.1351 188.651 10.7883C188.387 11.3602 187.458 11.3602 187.194 10.7883C186.893 10.1351 186.531 9.47432 186.168 9.11205C185.806 8.7523 185.145 8.3894 184.494 8.08897C183.92 7.82516 183.92 6.89612 184.494 6.63168C185.145 6.33126 185.806 5.96898 186.168 5.60608C186.531 5.24381 186.893 4.58364 187.194 3.9323Z" fill="#2EACE1"/>
</g>
<g clip-path="url(#clip2_2_20)">
<path d="M250.728 5.4344H250.672L239.254 21.2444L228.102 5.4344H228.077V28.3258H232.261V18.4926L239.166 28.0291H239.223L246.399 17.8362V28.3258H250.728V5.4344ZM271.411 6.33062H256.409V28.3258H271.834V24.1413H260.745V19.3888H270.186V15.2044H260.745V10.5151H271.411V6.33062Z" fill="#2B2B2B"/>
</g>
<defs>
<clipPath id="clip0_2_20">
<rect width="175" height="24" fill="white" transform="translate(0.813721 5)"/>
</clipPath>
<clipPath id="clip1_2_20">
<rect width="35.6327" height="34" fill="white" transform="translate(184.064)"/>
</clipPath>
<clipPath id="clip2_2_20">
<rect width="44" height="24" fill="white" transform="translate(227.947 5)"/>
</clipPath>
</defs>
</svg>
