<svg width="188" height="41" viewBox="0 0 188 41" fill="none" xmlns="http://www.w3.org/2000/svg">
<g clip-path="url(#clip0_2004_35704)">
<path d="M15.4619 9.70769C15.686 9.11568 16.574 9.11568 16.798 9.70769C17.7447 12.2051 19.5668 16.5517 21.3889 18.3732C23.2154 20.1972 27.3424 22.0243 29.6922 22.971C30.2665 23.2001 30.2665 24.0629 29.6922 24.2926C27.3424 25.2393 23.2154 27.0659 21.3889 28.8905C19.5668 30.7126 17.7447 35.0592 16.798 37.556C16.574 38.148 15.686 38.148 15.4619 37.556C14.5127 35.0586 12.6912 30.7119 10.8717 28.8905C9.04956 27.0684 4.70292 25.2488 2.20614 24.3002C1.61413 24.0755 1.61413 23.1882 2.20614 22.9641C4.70355 22.0149 9.05019 20.1953 10.8717 18.3732C12.6906 16.5511 14.5133 12.2051 15.4619 9.70769ZM28.5807 4.43643C28.8225 3.85452 29.7345 3.85452 29.9787 4.43643C30.4817 5.64948 31.1943 7.13833 31.9087 7.85341C32.6263 8.57101 34.059 9.29051 35.2077 9.79352C35.7744 10.0428 35.7744 10.9233 35.2077 11.1719C34.059 11.6749 32.6263 12.3944 31.9087 13.112C31.1943 13.8271 30.4817 15.316 29.9787 16.529C29.7345 17.1135 28.8225 17.1135 28.5807 16.529C28.0777 15.316 27.3626 13.8271 26.6501 13.112C25.9356 12.3995 24.4462 11.6844 23.2331 11.1814C22.6493 10.9403 22.6493 10.0277 23.2331 9.78658C24.4462 9.28104 25.9356 8.56849 26.6501 7.85341C27.3633 7.13833 28.0777 5.64948 28.5807 4.43643ZM3.13013 7.9323C3.39394 7.35797 4.32298 7.35797 4.58742 7.9323C4.88784 8.583 5.25012 9.2438 5.60986 9.60608C5.97782 9.9734 6.62347 10.3407 7.24956 10.6443C7.80685 10.9132 7.80685 11.8081 7.24956 12.077C6.62347 12.3799 5.97782 12.7472 5.6105 13.112C5.25075 13.4743 4.88784 14.1351 4.58742 14.7883C4.32361 15.3602 3.39394 15.3602 3.13013 14.7883C2.82907 14.1351 2.46743 13.4743 2.10453 13.112C1.74225 12.7523 1.08145 12.3894 0.430751 12.089C-0.143584 11.8252 -0.143584 10.8961 0.430751 10.6317C1.08082 10.3313 1.74225 9.96898 2.10453 9.60608C2.4668 9.2438 2.82907 8.58363 3.13013 7.9323Z" fill="#2EACE1"/>
</g>
<path d="M56.694 33.408C54.8127 33.408 53.0787 33.1133 51.492 32.524C49.928 31.912 48.5567 31.0507 47.378 29.94C46.222 28.8293 45.3153 27.526 44.658 26.03C44.0233 24.534 43.706 22.8907 43.706 21.1C43.706 19.3093 44.0233 17.666 44.658 16.17C45.3153 14.674 46.2333 13.3707 47.412 12.26C48.5907 11.1493 49.9733 10.2993 51.56 9.71C53.1467 9.098 54.892 8.792 56.796 8.792C58.904 8.792 60.7967 9.14333 62.474 9.846C64.174 10.5487 65.602 11.5687 66.758 12.906L63.222 16.17C62.3607 15.2633 61.42 14.5947 60.4 14.164C59.38 13.7107 58.2693 13.484 57.068 13.484C55.912 13.484 54.858 13.6653 53.906 14.028C52.954 14.3907 52.1267 14.912 51.424 15.592C50.744 16.272 50.2113 17.0767 49.826 18.006C49.4633 18.9353 49.282 19.9667 49.282 21.1C49.282 22.2107 49.4633 23.2307 49.826 24.16C50.2113 25.0893 50.744 25.9053 51.424 26.608C52.1267 27.288 52.9427 27.8093 53.872 28.172C54.824 28.5347 55.8667 28.716 57 28.716C58.088 28.716 59.142 28.546 60.162 28.206C61.2047 27.8433 62.2133 27.2427 63.188 26.404L66.316 30.382C65.024 31.3567 63.5167 32.1047 61.794 32.626C60.094 33.1473 58.394 33.408 56.694 33.408ZM61.284 29.668V20.726H66.316V30.382L61.284 29.668ZM71.0585 33V7.772H76.3625V33H71.0585ZM92.505 33V29.43L92.165 28.648V22.256C92.165 21.1227 91.8137 20.2387 91.111 19.604C90.431 18.9693 89.377 18.652 87.949 18.652C86.9744 18.652 86.011 18.8107 85.059 19.128C84.1297 19.4227 83.3364 19.8307 82.679 20.352L80.775 16.646C81.7724 15.9433 82.9737 15.3993 84.379 15.014C85.7844 14.6287 87.2124 14.436 88.663 14.436C91.451 14.436 93.6157 15.0933 95.157 16.408C96.6984 17.7227 97.469 19.774 97.469 22.562V33H92.505ZM86.929 33.272C85.501 33.272 84.277 33.034 83.257 32.558C82.237 32.0593 81.455 31.3907 80.911 30.552C80.367 29.7133 80.095 28.7727 80.095 27.73C80.095 26.642 80.3557 25.69 80.877 24.874C81.421 24.058 82.271 23.4233 83.427 22.97C84.583 22.494 86.0904 22.256 87.949 22.256H92.811V25.35H88.527C87.2804 25.35 86.419 25.554 85.943 25.962C85.4897 26.37 85.263 26.88 85.263 27.492C85.263 28.172 85.5237 28.716 86.045 29.124C86.589 29.5093 87.3257 29.702 88.255 29.702C89.139 29.702 89.9324 29.498 90.635 29.09C91.3377 28.6593 91.8477 28.036 92.165 27.22L92.981 29.668C92.5957 30.8467 91.893 31.742 90.873 32.354C89.853 32.966 88.5384 33.272 86.929 33.272ZM125.695 14.436C127.146 14.436 128.427 14.7307 129.537 15.32C130.671 15.8867 131.555 16.7707 132.189 17.972C132.847 19.1507 133.175 20.6693 133.175 22.528V33H127.871V23.344C127.871 21.8707 127.565 20.7827 126.953 20.08C126.341 19.3773 125.48 19.026 124.369 19.026C123.599 19.026 122.907 19.2073 122.295 19.57C121.683 19.91 121.207 20.4313 120.867 21.134C120.527 21.8367 120.357 22.732 120.357 23.82V33H115.053V23.344C115.053 21.8707 114.747 20.7827 114.135 20.08C113.546 19.3773 112.696 19.026 111.585 19.026C110.815 19.026 110.123 19.2073 109.511 19.57C108.899 19.91 108.423 20.4313 108.083 21.134C107.743 21.8367 107.573 22.732 107.573 23.82V33H102.269V14.708H107.335V19.706L106.383 18.244C107.018 16.9973 107.913 16.0567 109.069 15.422C110.248 14.7647 111.585 14.436 113.081 14.436C114.759 14.436 116.221 14.8667 117.467 15.728C118.737 16.5667 119.575 17.8587 119.983 19.604L118.113 19.094C118.725 17.666 119.7 16.5327 121.037 15.694C122.397 14.8553 123.95 14.436 125.695 14.436ZM137.93 33V14.708H143.234V33H137.93ZM140.582 12.158C139.607 12.158 138.814 11.8747 138.202 11.308C137.59 10.7413 137.284 10.0387 137.284 9.2C137.284 8.36133 137.59 7.65867 138.202 7.092C138.814 6.52533 139.607 6.242 140.582 6.242C141.556 6.242 142.35 6.514 142.962 7.058C143.574 7.57933 143.88 8.25933 143.88 9.098C143.88 9.982 143.574 10.7187 142.962 11.308C142.372 11.8747 141.579 12.158 140.582 12.158ZM150.162 33.272C149.255 33.272 148.473 32.966 147.816 32.354C147.181 31.7193 146.864 30.9147 146.864 29.94C146.864 28.9653 147.181 28.1833 147.816 27.594C148.473 26.982 149.255 26.676 150.162 26.676C151.091 26.676 151.873 26.982 152.508 27.594C153.143 28.1833 153.46 28.9653 153.46 29.94C153.46 30.9147 153.143 31.7193 152.508 32.354C151.873 32.966 151.091 33.272 150.162 33.272ZM157.055 33V14.708H162.359V33H157.055ZM159.707 12.158C158.732 12.158 157.939 11.8747 157.327 11.308C156.715 10.7413 156.409 10.0387 156.409 9.2C156.409 8.36133 156.715 7.65867 157.327 7.092C157.939 6.52533 158.732 6.242 159.707 6.242C160.681 6.242 161.475 6.514 162.087 7.058C162.699 7.57933 163.005 8.25933 163.005 9.098C163.005 9.982 162.699 10.7187 162.087 11.308C161.497 11.8747 160.704 12.158 159.707 12.158ZM175.985 33.272C174.036 33.272 172.302 32.864 170.783 32.048C169.287 31.232 168.097 30.1213 167.213 28.716C166.352 27.288 165.921 25.6673 165.921 23.854C165.921 22.018 166.352 20.3973 167.213 18.992C168.097 17.564 169.287 16.4533 170.783 15.66C172.302 14.844 174.036 14.436 175.985 14.436C177.912 14.436 179.634 14.844 181.153 15.66C182.672 16.4533 183.862 17.5527 184.723 18.958C185.584 20.3633 186.015 21.9953 186.015 23.854C186.015 25.6673 185.584 27.288 184.723 28.716C183.862 30.1213 182.672 31.232 181.153 32.048C179.634 32.864 177.912 33.272 175.985 33.272ZM175.985 28.92C176.869 28.92 177.662 28.716 178.365 28.308C179.068 27.9 179.623 27.322 180.031 26.574C180.439 25.8033 180.643 24.8967 180.643 23.854C180.643 22.7887 180.439 21.882 180.031 21.134C179.623 20.386 179.068 19.808 178.365 19.4C177.662 18.992 176.869 18.788 175.985 18.788C175.101 18.788 174.308 18.992 173.605 19.4C172.902 19.808 172.336 20.386 171.905 21.134C171.497 21.882 171.293 22.7887 171.293 23.854C171.293 24.8967 171.497 25.8033 171.905 26.574C172.336 27.322 172.902 27.9 173.605 28.308C174.308 28.716 175.101 28.92 175.985 28.92Z" fill="#2B2B2B"/>
<defs>
<clipPath id="clip0_2004_35704">
<rect width="35.6327" height="34" fill="white" transform="translate(0 4)"/>
</clipPath>
</defs>
</svg>
