<svg width="83" height="83" viewBox="0 0 83 83" fill="none" xmlns="http://www.w3.org/2000/svg">
<path d="M53.2897 59.5246C50.6456 61.2196 47.6752 62.3638 44.5754 62.8813C41.4756 63.3988 38.3174 63.2779 35.3103 62.5264C32.3032 61.775 29.5159 60.4102 27.1334 58.5227C24.7509 56.6352 22.8276 54.2682 21.4912 51.5785C20.1548 48.8889 19.4358 45.9382 19.3819 42.9223C19.328 39.9063 19.9404 36.894 21.1786 34.0852C22.4167 31.2764 24.2522 28.7354 26.5634 26.6307C28.8745 24.526 31.6085 22.9058 34.5838 21.8775L41.4618 41.9005L53.2897 59.5246Z" fill="url(#paint0_linear_2001_2050)"/>
<g clip-path="url(#clip0_2001_2050)">
<rect width="35.5123" height="35.5123" transform="matrix(0.899937 0.43602 -0.014839 0.99989 27.9431 15.344)" fill="#F79A38"/>
<path d="M48.6061 45.7338C49.0322 45.4712 49.102 44.8347 48.7525 43.9952C48.461 43.3178 47.9259 42.7904 47.325 42.6333C47.0845 42.5838 46.8429 42.6008 46.6004 42.6844C44.723 43.1823 42.2085 41.897 40.3726 39.6C40.2538 39.4754 40.135 39.3509 40.0162 39.2263C39.3624 38.5744 38.7016 38.3883 38.3324 38.8796C37.9033 39.3419 37.9523 40.1029 38.4824 40.963C38.6002 41.1541 38.719 41.2787 38.7769 41.4408L38.8358 41.5363C39.6635 42.6745 40.6747 43.6337 41.9894 44.4717L41.1979 44.9595C40.5283 45.3723 39.7977 45.8226 39.128 46.2354C38.9454 46.348 38.7009 46.5646 38.694 47.0304C38.6851 47.6293 38.9757 48.3733 39.5107 48.9006C39.6884 49.1208 39.8681 49.2078 40.0478 49.2949C40.3473 49.44 40.7086 49.481 40.9531 49.2643C41.8663 48.7014 42.5968 48.2511 43.3274 47.8008C43.3883 47.7633 43.3882 47.7633 43.3882 47.7633C43.3882 47.7633 43.4481 47.7923 43.4472 47.8589C43.9174 48.6899 44.4485 49.4834 44.9188 50.3144C45.1544 50.6967 45.39 51.0789 45.6256 51.4612C45.9201 51.939 46.1577 52.1881 46.5171 52.3622C47.0551 52.6899 47.66 52.5808 47.9084 52.098C48.1559 51.6817 48.046 50.9583 47.6327 50.3559C47.0436 49.4003 46.4556 48.3781 45.8066 47.3935L44.8053 45.769C45.3453 45.9636 45.9462 46.1207 46.4891 46.1156C47.3925 46.2182 48.0582 46.0716 48.6061 45.7338Z" fill="white"/>
<path d="M43.4831 41.3751C46.0584 42.6229 48.1882 41.376 48.2306 38.5146C48.2514 37.1172 47.792 35.5542 46.9084 34.1208C46.0249 32.6873 44.8948 31.6037 43.697 31.0233C41.1217 29.7756 39.0508 31.118 38.9494 33.8838C38.9287 35.2812 39.389 36.7777 40.2726 38.2111C41.0953 39.682 42.2253 40.7657 43.4831 41.3751ZM42.2642 34.0824C42.6295 33.8572 43.1116 33.8897 43.5907 34.1218C44.6687 34.6442 45.4335 35.953 45.4167 37.0842C45.399 38.282 44.5476 38.7408 43.5295 38.2475C42.4514 37.7252 41.6867 36.4164 41.7034 35.2852C41.7113 34.7528 41.8989 34.3075 42.2642 34.0824Z" fill="white"/>
<path d="M48.6061 45.7338C49.0322 45.4712 49.102 44.8347 48.7525 43.9952C48.461 43.3178 47.9259 42.7904 47.325 42.6333C47.0845 42.5838 46.8429 42.6008 46.6004 42.6844C44.723 43.1823 42.2085 41.897 40.3726 39.6C40.2538 39.4754 40.135 39.3509 40.0162 39.2263C39.3624 38.5744 38.7016 38.3883 38.3324 38.8796C37.9033 39.3419 37.9523 40.1029 38.4824 40.963C38.6002 41.1541 38.719 41.2787 38.7769 41.4408L38.8358 41.5363C39.6635 42.6745 40.6747 43.6337 41.9894 44.4717L41.1979 44.9595C40.5283 45.3723 39.7977 45.8226 39.128 46.2354C38.9454 46.348 38.7009 46.5646 38.694 47.0304C38.6851 47.6293 38.9757 48.3733 39.5107 48.9006C39.6884 49.1208 39.8681 49.2078 40.0478 49.2949C40.3473 49.44 40.7086 49.481 40.9531 49.2643C41.8663 48.7014 42.5968 48.2511 43.3274 47.8008C43.3883 47.7633 43.3882 47.7633 43.3882 47.7633C43.3882 47.7633 43.4481 47.7923 43.4472 47.8589C43.9174 48.6899 44.4485 49.4834 44.9188 50.3144C45.1544 50.6967 45.39 51.0789 45.6256 51.4612C45.9201 51.939 46.1577 52.1881 46.5171 52.3622C47.0551 52.6899 47.66 52.5808 47.9084 52.098C48.1559 51.6817 48.046 50.9583 47.6327 50.3559C47.0436 49.4003 46.4556 48.3781 45.8066 47.3935L44.8053 45.769C45.3453 45.9636 45.9462 46.1207 46.4891 46.1156C47.3925 46.2182 48.0582 46.0716 48.6061 45.7338Z" fill="white"/>
</g>
<defs>
<linearGradient id="paint0_linear_2001_2050" x1="35.1445" y1="45.4736" x2="14.351" y2="50.1282" gradientUnits="userSpaceOnUse">
<stop stop-color="#FFB05D"/>
<stop offset="1" stop-color="#FF911E"/>
</linearGradient>
<clipPath id="clip0_2001_2050">
<rect width="35.5123" height="35.5123" rx="17.7562" transform="matrix(0.899937 0.43602 -0.014839 0.99989 27.9431 15.344)" fill="white"/>
</clipPath>
</defs>
</svg>
