<svg width="19" height="16" viewBox="0 0 19 16" fill="none" xmlns="http://www.w3.org/2000/svg">
<path d="M4.80106 8.89019L0.625358 7.52966C0.625358 7.52966 0.126316 7.32719 0.287007 6.86808C0.320087 6.7734 0.386816 6.69284 0.586433 6.55439C1.51166 5.90949 17.7116 0.0868 17.7116 0.0868C17.7116 0.0868 18.169 -0.0673328 18.4387 0.0351848C18.5055 0.0558433 18.5655 0.0938587 18.6128 0.145341C18.66 0.196824 18.6927 0.259926 18.7075 0.328194C18.7367 0.448772 18.7489 0.572827 18.7437 0.696773C18.7425 0.803995 18.7295 0.903376 18.7196 1.05922C18.621 2.65117 15.6684 14.5324 15.6684 14.5324C15.6684 14.5324 15.4917 15.2276 14.8588 15.2514C14.7032 15.2564 14.5483 15.2301 14.4031 15.174C14.258 15.1178 14.1256 15.033 14.014 14.9246C12.7719 13.8562 8.479 10.9712 7.53039 10.3367C7.509 10.3221 7.49098 10.3031 7.47755 10.281C7.46412 10.2589 7.45559 10.2341 7.45254 10.2084C7.43928 10.1415 7.512 10.0587 7.512 10.0587C7.512 10.0587 14.9871 3.41427 15.186 2.71675C15.2014 2.66271 15.1432 2.63605 15.0651 2.65972C14.5686 2.84237 5.96198 8.27751 5.01208 8.87736C4.94371 8.89805 4.87144 8.90244 4.80106 8.89019Z" fill="white"/>
</svg>
