<svg width="66" height="48" viewBox="0 0 66 48" fill="none" xmlns="http://www.w3.org/2000/svg">
<g clip-path="url(#clip0_2001_2057)">
<rect width="44.2791" height="44.2791" transform="matrix(0.984975 0.172699 -0.483966 0.875087 21.6534 0.710938)" fill="#0077FF"/>
<path d="M30.0666 30.8772C21.871 29.4403 20.0118 23.5299 24.5019 15.0247L28.6072 15.7445C25.3034 21.9856 26.8735 25.1499 28.9704 26.1132L34.1658 16.7191L38.0314 17.3968L35.0658 22.7591C37.5608 22.9434 41.3993 20.9359 43.7249 18.3951L47.5905 19.0729C46.5034 20.4115 45.1431 21.6209 43.5949 22.6255C42.0467 23.6301 40.3437 24.4083 38.5926 24.9113C39.7182 25.8489 40.5138 27.0361 40.9269 28.3946C41.34 29.753 41.3612 31.2519 40.9891 32.7923L36.734 32.0462C37.0444 30.7061 36.8758 29.4281 36.2491 28.3725C35.6225 27.3169 34.5658 26.5307 33.2114 26.1122L30.5311 30.9587L30.0666 30.8772Z" fill="white"/>
</g>
<defs>
<clipPath id="clip0_2001_2057">
<rect width="44.2791" height="44.2791" rx="22.1396" transform="matrix(0.984975 0.172699 -0.483966 0.875087 21.6534 0.710938)" fill="white"/>
</clipPath>
</defs>
</svg>
